<svg width="2899.5" height="3131.3" viewBox="0 0 2899.5 3131.3" xmlns="http://www.w3.org/2000/svg" xmlns:xlink="http://www.w3.org/1999/xlink" overflow="hidden"><defs></defs><g><g><g><defs><path d="M521.8 2105.7 521.8 1025.7 2441.8 1025.7 2441.8 2105.7Z" id="SVGID_1_"/></defs><linearGradient x1="521.837" y1="1565.67" x2="2441.84" y2="1565.67" gradientUnits="userSpaceOnUse" id="SVGID_2_"><stop offset="0" stop-color="#436B91"/><stop offset="1" stop-color="#5487B4"/></linearGradient><clipPath id="SVGID_3_"><use width="100%" height="100%" xlink:href="#SVGID_1_"></use></clipPath><use width="100%" height="100%" xlink:href="#SVGID_1_" fill="url(#SVGID_2_)"></use><g clip-path="url(#SVGID_3_)"><linearGradient x1="3259.46" y1="2413.76" x2="3259.46" y2="637.575" gradientUnits="userSpaceOnUse" id="SVGID_4_" gradientTransform="matrix(-0.3972 -0.9177 0.9177 -0.3972 1978.89 4581.25)"><stop offset="0" stop-color="#436B91"/><stop offset="1" stop-color="#5487B4"/></linearGradient><linearGradient x1="3390.71" y1="-7585.25" x2="3390.71" y2="-9361.44" gradientUnits="userSpaceOnUse" id="SVGID_5_" gradientTransform="matrix(0 1 -1 0 -6461.95 -1436.46)"><stop offset="0" stop-color="#436B91"/><stop offset="1" stop-color="#5487B4"/></linearGradient><linearGradient x1="7774.98" y1="-5356.72" x2="7774.98" y2="-7132.91" gradientUnits="userSpaceOnUse" id="SVGID_6_" gradientTransform="matrix(0.7071 -0.7071 -0.7071 -0.7071 -8243.61 2569.74)"><stop offset="0" stop-color="#436B91"/><stop offset="1" stop-color="#5487B4"/></linearGradient><linearGradient x1="2243.69" y1="1420.61" x2="2243.69" y2="-355.576" gradientUnits="userSpaceOnUse" id="SVGID_7_" gradientTransform="matrix(-0.6756 -0.7373 0.7373 -0.6756 2413.32 2673.46)"><stop offset="0" stop-color="#436B91"/><stop offset="1" stop-color="#5487B4"/></linearGradient><linearGradient x1="233.982" y1="-4526.31" x2="233.982" y2="-6302.5" gradientUnits="userSpaceOnUse" id="SVGID_8_" gradientTransform="matrix(-0.8506 0.5258 -0.5258 -0.8506 -1555.82 -2352.81)"><stop offset="0" stop-color="#436B91"/><stop offset="1" stop-color="#5487B4"/></linearGradient><linearGradient x1="7053.74" y1="-4635.48" x2="7053.74" y2="-6411.67" gradientUnits="userSpaceOnUse" id="SVGID_9_" gradientTransform="matrix(0.7071 -0.7071 -0.7071 -0.7071 -8243.61 2569.74)"><stop offset="0" stop-color="#436B91"/><stop offset="1" stop-color="#5487B4"/></linearGradient><path d="M2899.5 631.2 2107.1 294 1475.8 702.3 1269.4 1336.7 1873.2 1620.4 2603 1439.7 2899.5 631.2 2899.5 631.2 2899.5 631.2 2899.5 631.2Z" fill="url(#SVGID_4_)"/><path d="M1123.3 1954.2 1716.5 2578.5 2458.1 2454.5 2899.5 1954.2 2458.1 1454 1716.5 1330 1123.3 1954.2 1123.3 1954.2 1123.3 1954.2 1123.3 1954.2Z" fill="url(#SVGID_5_)"/><path d="M1041.9 859.8 1902.8 837.9 2339.4 1449.9 2297.9 2115.7 1632 2157.3 1020 1720.6 1041.9 859.8 1041.9 859.8 1041.9 859.8 1041.9 859.8Z" fill="url(#SVGID_6_)"/><path d="M1945 59.5 1085.9 0 622.9 592.4 635.4 1259.4 1298.8 1330 1929.3 920.5 1945 59.5 1945 59.5 1945 59.5 1945 59.5Z" fill="url(#SVGID_7_)"/><path d="M624.9 1620.5 405.8 2453.3 901.1 3018.9 1558.7 3131.3 1752.2 2492.8 1467.8 1796.9 624.9 1620.4 624.9 1620.4 624.9 1620.4 624.9 1620.4Z" fill="url(#SVGID_8_)"/><path d="M21.9 859.8 882.8 837.9 1319.5 1449.9 1277.9 2115.7 612 2157.3 0 1720.6 21.9 859.8 21.9 859.8 21.9 859.8 21.9 859.8Z" fill="url(#SVGID_9_)"/></g></g></g><rect x="611.8" y="1115.7" width="1740" height="900" fill="none"/><g><g><path d="M1603.8 1597.8 1614 1583.5C1620.2 1590 1629.9 1595.4 1642.1 1595.4 1652.4 1595.4 1657.5 1590.6 1657.5 1585.6 1657.5 1570 1606.6 1580.7 1606.6 1547.4 1606.6 1532.7 1619.3 1520.5 1640.1 1520.5 1654.2 1520.5 1665.8 1524.7 1674.6 1532.8L1664.1 1546.6C1656.9 1540 1647.4 1536.9 1638.4 1536.9 1630.3 1536.9 1625.8 1540.5 1625.8 1545.8 1625.8 1559.9 1676.6 1550.4 1676.6 1583.5 1676.6 1599.7 1665.1 1611.9 1641.2 1611.9 1624.2 1611.8 1612 1606.1 1603.8 1597.8Z" fill="#FFFFFF"/><path d="M1766.3 1610.2 1766.3 1548.3 1741.4 1610.2 1733.2 1610.2 1708.3 1548.3 1708.3 1610.2 1689.5 1610.2 1689.5 1521.8 1715.9 1521.8 1737.4 1575.2 1758.9 1521.8 1785.4 1521.8 1785.4 1610.2 1766.3 1610.2Z" fill="#FFFFFF"/><path d="M1855.2 1610.2 1828.4 1574.8 1821.5 1583 1821.5 1610.2 1802.7 1610.2 1802.7 1521.8 1821.5 1521.8 1821.5 1561.3 1852.8 1521.8 1876 1521.8 1840.9 1563.3 1878.4 1610.2 1855.2 1610.2Z" fill="#FFFFFF"/></g><g><rect x="1567.8" y="1505.8" width="3" height="120.5" fill="#FFFFFF"/></g><g><g><path d="M1190.5 1591.7 1223.7 1574.6 1223.7 1488.8 1154.4 1523.3 1183.4 1548.9Z" fill="#FFFFFF"/><path d="M1154.4 1626.1 1085.2 1591.5 1085.2 1643.2 1223.7 1643.2 1223.7 1591.5Z" fill="#FFFFFF" opacity="0.35"/><path d="M1118.3 1591.7 1085.2 1574.6 1085.2 1488.8 1154.4 1523.3 1125.5 1548.9Z" fill="#FFFFFF"/></g><g><path d="M1254.9 1524.4 1254.9 1509.8 1241.1 1488.7 1249.8 1488.7 1258.7 1503.1 1267.5 1488.7 1276.2 1488.7 1262.5 1509.8 1262.5 1524.4 1254.9 1524.4Z" fill="#FFFFFF"/><path d="M1299.7 1524.4 1297.5 1518.3 1282.2 1518.3 1279.9 1524.4 1271.2 1524.4 1285 1488.6 1294.5 1488.6 1308.3 1524.4 1299.7 1524.4ZM1289.8 1496.3 1284.2 1511.7 1295.4 1511.7 1289.8 1496.3Z" fill="#FFFFFF"/><path d="M1317.2 1524.4 1317.2 1509.8 1303.4 1488.7 1312.1 1488.7 1321 1503.1 1329.8 1488.7 1338.5 1488.7 1324.8 1509.8 1324.8 1524.4 1317.2 1524.4Z" fill="#FFFFFF"/><path d="M1362 1524.4 1359.8 1518.3 1344.5 1518.3 1342.2 1524.4 1333.5 1524.4 1347.3 1488.6 1356.8 1488.6 1370.6 1524.4 1362 1524.4ZM1352.2 1496.3 1346.6 1511.7 1357.8 1511.7 1352.2 1496.3Z" fill="#FFFFFF"/><path d="M1371.8 1519.4 1375.9 1513.6C1378.4 1516.2 1382.3 1518.4 1387.3 1518.4 1391.5 1518.4 1393.5 1516.5 1393.5 1514.4 1393.5 1508.1 1372.9 1512.4 1372.9 1499 1372.9 1493 1378 1488.1 1386.5 1488.1 1392.2 1488.1 1396.9 1489.8 1400.4 1493.1L1396.2 1498.7C1393.3 1496 1389.4 1494.8 1385.8 1494.8 1382.5 1494.8 1380.7 1496.2 1380.7 1498.4 1380.7 1504.1 1401.2 1500.3 1401.2 1513.6 1401.2 1520.1 1396.5 1525.1 1386.9 1525.1 1380.1 1525.1 1375.2 1522.8 1371.8 1519.4Z" fill="#FFFFFF"/><path d="M1430.4 1524.4 1428.2 1518.3 1412.9 1518.3 1410.6 1524.4 1401.9 1524.4 1415.7 1488.6 1425.2 1488.6 1439 1524.4 1430.4 1524.4ZM1420.5 1496.3 1414.9 1511.7 1426.1 1511.7 1420.5 1496.3Z" fill="#FFFFFF"/><path d="M1466.9 1524.4 1449.8 1501.1 1449.8 1524.4 1442.2 1524.4 1442.2 1488.6 1450 1488.6 1466.6 1511.1 1466.6 1488.6 1474.2 1488.6 1474.2 1524.4 1466.9 1524.4Z" fill="#FFFFFF"/><path d="M1269.6 1575.7 1267.4 1569.6 1252.1 1569.6 1249.8 1575.7 1241.1 1575.7 1254.9 1539.9 1264.4 1539.9 1278.2 1575.7 1269.6 1575.7ZM1259.7 1547.5 1254.1 1562.9 1265.3 1562.9 1259.7 1547.5Z" fill="#FFFFFF"/><path d="M1281.4 1575.7 1281.4 1539.9 1289 1539.9 1289 1569 1304.1 1569 1304.1 1575.7 1281.4 1575.7Z" fill="#FFFFFF"/><path d="M1354.2 1575.7 1354.2 1550.7 1344.1 1575.7 1340.8 1575.7 1330.7 1550.7 1330.7 1575.7 1323.1 1575.7 1323.1 1539.9 1333.8 1539.9 1342.5 1561.5 1351.2 1539.9 1361.9 1539.9 1361.9 1575.7 1354.2 1575.7Z" fill="#FFFFFF"/><path d="M1368.9 1561.4 1368.9 1539.9 1376.6 1539.9 1376.6 1561.1C1376.6 1566.1 1379.5 1569.5 1385 1569.5 1390.5 1569.5 1393.4 1566.1 1393.4 1561.1L1393.4 1539.9 1401.2 1539.9 1401.2 1561.4C1401.2 1570.3 1395.9 1576.4 1385.1 1576.4 1374.1 1576.3 1368.9 1570.2 1368.9 1561.4Z" fill="#FFFFFF"/><path d="M1405.3 1570.7 1409.4 1564.9C1411.9 1567.5 1415.8 1569.7 1420.8 1569.7 1425 1569.7 1427 1567.8 1427 1565.7 1427 1559.4 1406.4 1563.7 1406.4 1550.3 1406.4 1544.3 1411.5 1539.4 1420 1539.4 1425.7 1539.4 1430.4 1541.1 1433.9 1544.4L1429.7 1550C1426.8 1547.3 1422.9 1546.1 1419.3 1546.1 1416 1546.1 1414.2 1547.5 1414.2 1549.7 1414.2 1555.4 1434.7 1551.6 1434.7 1564.9 1434.7 1571.4 1430 1576.4 1420.4 1576.4 1413.6 1576.3 1408.7 1574 1405.3 1570.7Z" fill="#FFFFFF"/><path d="M1439.8 1575.7 1439.8 1539.9 1447.4 1539.9 1447.4 1569 1462.5 1569 1462.5 1575.7 1439.8 1575.7Z" fill="#FFFFFF"/><path d="M1466.6 1575.7 1466.6 1539.9 1474.2 1539.9 1474.2 1575.7 1466.6 1575.7Z" fill="#FFFFFF"/><path d="M1512.3 1575.7 1512.3 1550.7 1502.2 1575.7 1498.9 1575.7 1488.8 1550.7 1488.8 1575.7 1481.2 1575.7 1481.2 1539.9 1491.9 1539.9 1500.6 1561.5 1509.3 1539.9 1520 1539.9 1520 1575.7 1512.3 1575.7Z" fill="#FFFFFF"/></g><g opacity="0.8"><path d="M1241.1 1598.9C1241.1 1593.6 1245 1590.1 1249.9 1590.1 1252.9 1590.1 1255 1591.6 1256.4 1593.5L1254.6 1594.5C1253.6 1593.1 1251.9 1592 1249.9 1592 1246.2 1592 1243.3 1594.9 1243.3 1598.9 1243.3 1603 1246.1 1605.8 1249.9 1605.8 1251.9 1605.8 1253.6 1604.8 1254.6 1603.3L1256.4 1604.3C1255 1606.2 1252.9 1607.7 1249.9 1607.7 1244.9 1607.7 1241.1 1604.1 1241.1 1598.9Z" fill="#FFFFFF"/><path d="M1259 1607.4 1259 1595 1260.9 1595 1260.9 1597C1261.9 1595.7 1263.3 1594.7 1265 1594.7L1265 1596.7C1264.8 1596.6 1264.5 1596.6 1264.2 1596.6 1263 1596.6 1261.4 1597.6 1260.8 1598.6L1260.8 1607.4 1259 1607.4Z" fill="#FFFFFF"/><path d="M1266.7 1601.2C1266.7 1597.6 1269.3 1594.7 1272.8 1594.7 1276.5 1594.7 1278.7 1597.6 1278.7 1601.3L1278.7 1601.8 1268.7 1601.8C1268.9 1604.1 1270.5 1606.1 1273.2 1606.1 1274.6 1606.1 1276 1605.5 1277 1604.5L1277.9 1605.8C1276.7 1607 1275 1607.7 1273 1607.7 1269.4 1607.7 1266.7 1605.1 1266.7 1601.2ZM1272.8 1596.3C1270.2 1596.3 1268.9 1598.5 1268.7 1600.4L1276.8 1600.4C1276.9 1598.6 1275.6 1596.3 1272.8 1596.3Z" fill="#FFFFFF"/><path d="M1289.6 1607.4 1289.6 1606C1288.6 1607.1 1287.2 1607.7 1285.5 1607.7 1283.4 1607.7 1281.2 1606.3 1281.2 1603.6 1281.2 1600.8 1283.4 1599.5 1285.5 1599.5 1287.2 1599.5 1288.6 1600 1289.6 1601.2L1289.6 1599C1289.6 1597.3 1288.3 1596.4 1286.5 1596.4 1285 1596.4 1283.8 1596.9 1282.7 1598.1L1281.8 1596.8C1283.1 1595.4 1284.7 1594.7 1286.7 1594.7 1289.3 1594.7 1291.5 1595.9 1291.5 1598.9L1291.5 1607.4 1289.6 1607.4ZM1289.6 1604.8 1289.6 1602.5C1288.9 1601.5 1287.5 1601 1286.2 1601 1284.4 1601 1283.1 1602.1 1283.1 1603.7 1283.1 1605.3 1284.4 1606.4 1286.2 1606.4 1287.6 1606.4 1288.9 1605.8 1289.6 1604.8Z" fill="#FFFFFF"/><path d="M1295.8 1604.8 1295.8 1596.7 1293.7 1596.7 1293.7 1595 1295.8 1595 1295.8 1591.6 1297.7 1591.6 1297.7 1595 1300.2 1595 1300.2 1596.7 1297.7 1596.7 1297.7 1604.4C1297.7 1605.3 1298.1 1606 1299 1606 1299.5 1606 1300 1605.8 1300.3 1605.5L1300.9 1606.9C1300.4 1607.4 1299.7 1607.7 1298.6 1607.7 1296.7 1607.7 1295.8 1606.7 1295.8 1604.8Z" fill="#FFFFFF"/><path d="M1302.2 1601.2C1302.2 1597.6 1304.8 1594.7 1308.3 1594.7 1312 1594.7 1314.2 1597.6 1314.2 1601.3L1314.2 1601.8 1304.2 1601.8C1304.4 1604.1 1306 1606.1 1308.7 1606.1 1310.1 1606.1 1311.5 1605.5 1312.5 1604.5L1313.4 1605.8C1312.2 1607 1310.5 1607.7 1308.5 1607.7 1304.8 1607.7 1302.2 1605.1 1302.2 1601.2ZM1308.3 1596.3C1305.7 1596.3 1304.4 1598.5 1304.2 1600.4L1312.3 1600.4C1312.3 1598.6 1311.1 1596.3 1308.3 1596.3Z" fill="#FFFFFF"/><path d="M1323.4 1598.9C1323.4 1593.6 1327.3 1590.1 1332.2 1590.1 1335.2 1590.1 1337.3 1591.6 1338.7 1593.5L1336.9 1594.5C1335.9 1593.1 1334.2 1592 1332.2 1592 1328.5 1592 1325.6 1594.9 1325.6 1598.9 1325.6 1603 1328.4 1605.8 1332.2 1605.8 1334.2 1605.8 1335.9 1604.8 1336.9 1603.3L1338.7 1604.3C1337.3 1606.2 1335.2 1607.7 1332.2 1607.7 1327.2 1607.7 1323.4 1604.1 1323.4 1598.9Z" fill="#FFFFFF"/><path d="M1341.3 1607.4 1341.3 1595 1343.2 1595 1343.2 1597C1344.2 1595.7 1345.6 1594.7 1347.3 1594.7L1347.3 1596.7C1347.1 1596.6 1346.8 1596.6 1346.5 1596.6 1345.3 1596.6 1343.7 1597.6 1343.1 1598.6L1343.1 1607.4 1341.3 1607.4Z" fill="#FFFFFF"/><path d="M1349 1601.2C1349 1597.6 1351.6 1594.7 1355.1 1594.7 1358.8 1594.7 1361 1597.6 1361 1601.3L1361 1601.8 1351 1601.8C1351.2 1604.1 1352.8 1606.1 1355.5 1606.1 1356.9 1606.1 1358.3 1605.5 1359.3 1604.5L1360.2 1605.8C1359 1607 1357.3 1607.7 1355.3 1607.7 1351.7 1607.7 1349 1605.1 1349 1601.2ZM1355.1 1596.3C1352.5 1596.3 1351.2 1598.5 1351 1600.4L1359.1 1600.4C1359.2 1598.6 1357.9 1596.3 1355.1 1596.3Z" fill="#FFFFFF"/><path d="M1371.9 1607.4 1371.9 1606C1370.9 1607.1 1369.5 1607.7 1367.8 1607.7 1365.7 1607.7 1363.5 1606.3 1363.5 1603.6 1363.5 1600.8 1365.7 1599.5 1367.8 1599.5 1369.5 1599.5 1370.9 1600 1371.9 1601.2L1371.9 1599C1371.9 1597.3 1370.6 1596.4 1368.8 1596.4 1367.3 1596.4 1366.1 1596.9 1365 1598.1L1364.1 1596.8C1365.4 1595.4 1367 1594.7 1369 1594.7 1371.6 1594.7 1373.8 1595.9 1373.8 1598.9L1373.8 1607.4 1371.9 1607.4ZM1371.9 1604.8 1371.9 1602.5C1371.2 1601.5 1369.8 1601 1368.5 1601 1366.7 1601 1365.4 1602.1 1365.4 1603.7 1365.4 1605.3 1366.7 1606.4 1368.5 1606.4 1369.9 1606.4 1371.2 1605.8 1371.9 1604.8Z" fill="#FFFFFF"/><path d="M1378.1 1604.8 1378.1 1596.7 1376 1596.7 1376 1595 1378.1 1595 1378.1 1591.6 1380 1591.6 1380 1595 1382.5 1595 1382.5 1596.7 1380 1596.7 1380 1604.4C1380 1605.3 1380.4 1606 1381.3 1606 1381.8 1606 1382.3 1605.8 1382.6 1605.5L1383.2 1606.9C1382.7 1607.4 1382 1607.7 1380.9 1607.7 1379 1607.7 1378.1 1606.7 1378.1 1604.8Z" fill="#FFFFFF"/><path d="M1384.9 1592C1384.9 1591.3 1385.5 1590.7 1386.2 1590.7 1386.9 1590.7 1387.5 1591.3 1387.5 1592 1387.5 1592.7 1386.9 1593.3 1386.2 1593.3 1385.5 1593.3 1384.9 1592.7 1384.9 1592ZM1385.2 1607.4 1385.2 1595 1387.1 1595 1387.1 1607.4 1385.2 1607.4Z" fill="#FFFFFF"/><path d="M1394.3 1607.4 1389.1 1595 1391.2 1595 1395.3 1605.2 1399.4 1595 1401.5 1595 1396.3 1607.4 1394.3 1607.4Z" fill="#FFFFFF"/><path d="M1402.8 1601.2C1402.8 1597.6 1405.4 1594.7 1408.9 1594.7 1412.6 1594.7 1414.8 1597.6 1414.8 1601.3L1414.8 1601.8 1404.8 1601.8C1405 1604.1 1406.6 1606.1 1409.3 1606.1 1410.7 1606.1 1412.1 1605.5 1413.1 1604.5L1414 1605.8C1412.8 1607 1411.1 1607.7 1409.1 1607.7 1405.5 1607.7 1402.8 1605.1 1402.8 1601.2ZM1408.9 1596.3C1406.3 1596.3 1405 1598.5 1404.8 1600.4L1412.9 1600.4C1413 1598.6 1411.7 1596.3 1408.9 1596.3Z" fill="#FFFFFF"/><path d="M1418.3 1610.7 1417.4 1609.9C1418.2 1609.4 1419 1608.4 1419.1 1607.5 1419 1607.5 1418.9 1607.6 1418.7 1607.6 1418 1607.6 1417.5 1607.1 1417.5 1606.3 1417.5 1605.6 1418.1 1604.9 1418.9 1604.9 1419.7 1604.9 1420.5 1605.6 1420.5 1606.8 1420.4 1608.4 1419.5 1609.8 1418.3 1610.7Z" fill="#FFFFFF"/><path d="M1429.7 1598.9C1429.7 1593.6 1433.6 1590.1 1438.5 1590.1 1441.5 1590.1 1443.6 1591.6 1445 1593.5L1443.2 1594.5C1442.2 1593.1 1440.5 1592 1438.5 1592 1434.8 1592 1431.9 1594.9 1431.9 1598.9 1431.9 1603 1434.7 1605.8 1438.5 1605.8 1440.4 1605.8 1442.2 1604.8 1443.2 1603.3L1445 1604.3C1443.6 1606.2 1441.5 1607.7 1438.5 1607.7 1433.6 1607.7 1429.7 1604.1 1429.7 1598.9Z" fill="#FFFFFF"/><path d="M1446.9 1601.2C1446.9 1597.6 1449.3 1594.7 1453 1594.7 1456.7 1594.7 1459.1 1597.6 1459.1 1601.2 1459.1 1604.8 1456.7 1607.7 1453 1607.7 1449.3 1607.7 1446.9 1604.8 1446.9 1601.2ZM1457.1 1601.2C1457.1 1598.7 1455.6 1596.4 1453 1596.4 1450.4 1596.4 1448.9 1598.7 1448.9 1601.2 1448.9 1603.7 1450.4 1606 1453 1606 1455.7 1606 1457.1 1603.8 1457.1 1601.2Z" fill="#FFFFFF"/><path d="M1470.7 1607.4 1470.7 1599.3C1470.7 1597.1 1469.6 1596.4 1467.9 1596.4 1466.4 1596.4 1465 1597.3 1464.2 1598.3L1464.2 1607.3 1462.3 1607.3 1462.3 1595 1464.2 1595 1464.2 1596.8C1465.1 1595.8 1466.8 1594.7 1468.6 1594.7 1471.2 1594.7 1472.5 1596 1472.5 1598.7L1472.5 1607.4 1470.7 1607.4Z" fill="#FFFFFF"/><path d="M1477 1607.4 1477 1596.7 1474.9 1596.7 1474.9 1595 1477 1595 1477 1594.1C1477 1591.5 1478.4 1590.1 1480.6 1590.1 1481.3 1590.1 1482 1590.2 1482.5 1590.5L1482 1592C1481.7 1591.8 1481.4 1591.7 1480.9 1591.7 1479.6 1591.7 1479 1592.6 1479 1594.1L1479 1595 1481.5 1595 1481.5 1596.7 1479 1596.7 1479 1607.4 1477 1607.4ZM1483.3 1592C1483.3 1591.3 1483.9 1590.7 1484.6 1590.7 1485.3 1590.7 1485.9 1591.3 1485.9 1592 1485.9 1592.7 1485.3 1593.3 1484.6 1593.3 1483.9 1593.3 1483.3 1592.7 1483.3 1592ZM1483.7 1607.4 1483.7 1595 1485.6 1595 1485.6 1607.4 1483.7 1607.4Z" fill="#FFFFFF"/><path d="M1498.4 1607.4 1498.4 1605.6C1497.5 1606.9 1496 1607.8 1494.2 1607.8 1491 1607.8 1488.7 1605.3 1488.7 1601.3 1488.7 1597.4 1491 1594.8 1494.2 1594.8 1495.9 1594.8 1497.4 1595.6 1498.4 1597L1498.4 1590.4 1500.3 1590.4 1500.3 1607.5 1498.4 1607.5ZM1498.4 1604.1 1498.4 1598.5C1497.7 1597.4 1496.2 1596.5 1494.7 1596.5 1492.2 1596.5 1490.7 1598.6 1490.7 1601.3 1490.7 1604 1492.2 1606.1 1494.7 1606.1 1496.3 1606 1497.7 1605.1 1498.4 1604.1Z" fill="#FFFFFF"/><path d="M1503.5 1601.2C1503.5 1597.6 1506.1 1594.7 1509.6 1594.7 1513.3 1594.7 1515.5 1597.6 1515.5 1601.3L1515.5 1601.8 1505.5 1601.8C1505.7 1604.1 1507.3 1606.1 1510 1606.1 1511.4 1606.1 1512.8 1605.5 1513.8 1604.5L1514.7 1605.8C1513.5 1607 1511.8 1607.7 1509.8 1607.7 1506.1 1607.7 1503.5 1605.1 1503.5 1601.2ZM1509.6 1596.3C1507 1596.3 1505.7 1598.5 1505.5 1600.4L1513.6 1600.4C1513.6 1598.6 1512.4 1596.3 1509.6 1596.3Z" fill="#FFFFFF"/><path d="M1527 1607.4 1527 1599.3C1527 1597.1 1525.9 1596.4 1524.2 1596.4 1522.7 1596.4 1521.3 1597.3 1520.5 1598.3L1520.5 1607.3 1518.6 1607.3 1518.6 1595 1520.5 1595 1520.5 1596.8C1521.4 1595.8 1523.1 1594.7 1524.9 1594.7 1527.5 1594.7 1528.8 1596 1528.8 1598.7L1528.8 1607.4 1527 1607.4Z" fill="#FFFFFF"/><path d="M1533.1 1604.8 1533.1 1596.7 1531 1596.7 1531 1595 1533.1 1595 1533.1 1591.6 1535 1591.6 1535 1595 1537.5 1595 1537.5 1596.7 1535 1596.7 1535 1604.4C1535 1605.3 1535.4 1606 1536.3 1606 1536.8 1606 1537.3 1605.8 1537.6 1605.5L1538.2 1606.9C1537.7 1607.4 1537 1607.7 1535.9 1607.7 1534.1 1607.7 1533.1 1606.7 1533.1 1604.8Z" fill="#FFFFFF"/><path d="M1252.8 1638.2C1252.3 1637.8 1251.6 1637.1 1250.9 1636.4 1249.6 1637.7 1248.1 1638.5 1246 1638.5 1243.1 1638.5 1240.7 1636.9 1240.7 1633.7 1240.7 1631 1242.5 1629.7 1244.5 1628.6 1243.7 1627.3 1243.2 1626 1243.2 1624.8 1243.2 1622.5 1245.1 1620.8 1247.5 1620.8 1249.7 1620.8 1251.4 1622 1251.4 1624.2 1251.4 1626.8 1249.2 1627.9 1247 1629 1247.7 1629.9 1248.4 1630.8 1249 1631.4 1249.7 1632.2 1250.4 1633 1251 1633.7 1251.9 1632.3 1252.5 1630.8 1252.8 1629.8L1254.5 1630.5C1253.9 1631.9 1253.2 1633.5 1252.2 1634.9 1253.2 1636 1254.3 1637 1255.5 1638.1L1252.8 1638.1ZM1249.8 1635.2C1248.8 1634.2 1247.9 1633.2 1247.4 1632.6 1246.7 1631.8 1245.9 1630.9 1245.2 1629.9 1243.8 1630.8 1242.7 1631.8 1242.7 1633.6 1242.7 1635.7 1244.3 1636.9 1246.1 1636.9 1247.6 1636.9 1248.8 1636.2 1249.8 1635.2ZM1246.2 1627.8C1248 1626.9 1249.6 1626 1249.6 1624.3 1249.6 1623 1248.7 1622.4 1247.6 1622.4 1246.3 1622.4 1245.2 1623.4 1245.2 1624.9 1245.1 1625.7 1245.6 1626.8 1246.2 1627.8Z" fill="#FFFFFF"/><path d="M1264.1 1629.7C1264.1 1624.4 1268 1620.9 1272.9 1620.9 1275.9 1620.9 1278 1622.4 1279.4 1624.3L1277.6 1625.3C1276.6 1623.9 1274.9 1622.8 1272.9 1622.8 1269.2 1622.8 1266.3 1625.7 1266.3 1629.7 1266.3 1633.8 1269.1 1636.6 1272.9 1636.6 1274.9 1636.6 1276.6 1635.6 1277.6 1634.1L1279.4 1635.1C1278 1637 1275.9 1638.5 1272.9 1638.5 1268 1638.5 1264.1 1634.9 1264.1 1629.7Z" fill="#FFFFFF"/><path d="M1289.8 1638.2 1289.8 1636.8C1288.8 1637.9 1287.4 1638.5 1285.7 1638.5 1283.6 1638.5 1281.4 1637.1 1281.4 1634.4 1281.4 1631.6 1283.6 1630.3 1285.7 1630.3 1287.4 1630.3 1288.8 1630.8 1289.8 1632L1289.8 1629.8C1289.8 1628.1 1288.5 1627.2 1286.7 1627.2 1285.2 1627.2 1284 1627.7 1282.9 1628.9L1282 1627.6C1283.3 1626.2 1284.9 1625.5 1286.9 1625.5 1289.5 1625.5 1291.7 1626.7 1291.7 1629.7L1291.7 1638.2 1289.8 1638.2ZM1289.8 1635.6 1289.8 1633.3C1289.1 1632.3 1287.7 1631.8 1286.4 1631.8 1284.6 1631.8 1283.3 1632.9 1283.3 1634.5 1283.3 1636.1 1284.6 1637.2 1286.4 1637.2 1287.7 1637.1 1289 1636.6 1289.8 1635.6Z" fill="#FFFFFF"/><path d="M1295.5 1638.2 1295.5 1625.8 1297.4 1625.8 1297.4 1627.8C1298.4 1626.5 1299.8 1625.5 1301.5 1625.5L1301.5 1627.5C1301.3 1627.4 1301 1627.4 1300.7 1627.4 1299.5 1627.4 1297.9 1628.4 1297.3 1629.4L1297.3 1638.2 1295.5 1638.2Z" fill="#FFFFFF"/><path d="M1303.7 1622.8C1303.7 1622.1 1304.3 1621.5 1305 1621.5 1305.7 1621.5 1306.3 1622.1 1306.3 1622.8 1306.3 1623.5 1305.7 1624.1 1305 1624.1 1304.3 1624 1303.7 1623.5 1303.7 1622.8ZM1304 1638.2 1304 1625.8 1305.9 1625.8 1305.9 1638.2 1304 1638.2Z" fill="#FFFFFF"/><path d="M1318.1 1638.2 1318.1 1630.1C1318.1 1627.9 1317 1627.2 1315.3 1627.2 1313.8 1627.2 1312.4 1628.1 1311.6 1629.1L1311.6 1638.1 1309.7 1638.1 1309.7 1625.7 1311.6 1625.7 1311.6 1627.5C1312.5 1626.5 1314.2 1625.4 1316 1625.4 1318.6 1625.4 1319.9 1626.7 1319.9 1629.4L1319.9 1638.1 1318.1 1638.1Z" fill="#FFFFFF"/><path d="M1323.9 1641.4 1324.9 1640C1325.9 1641.2 1327.2 1641.7 1328.9 1641.7 1331 1641.7 1332.9 1640.7 1332.9 1638L1332.9 1636.2C1332 1637.5 1330.5 1638.4 1328.7 1638.4 1325.5 1638.4 1323.2 1636 1323.2 1632 1323.2 1628 1325.5 1625.6 1328.7 1625.6 1330.4 1625.6 1331.9 1626.4 1332.9 1627.8L1332.9 1625.9 1334.8 1625.9 1334.8 1637.9C1334.8 1642 1331.9 1643.3 1328.9 1643.3 1326.8 1643.2 1325.3 1642.8 1323.9 1641.4ZM1332.8 1634.6 1332.8 1629.2C1332.1 1628.1 1330.6 1627.2 1329.1 1627.2 1326.6 1627.2 1325.1 1629.2 1325.1 1631.9 1325.1 1634.6 1326.6 1636.6 1329.1 1636.6 1330.7 1636.6 1332.2 1635.7 1332.8 1634.6Z" fill="#FFFFFF"/><path d="M1344.6 1629.7C1344.6 1624.4 1348.5 1620.9 1353.4 1620.9 1356.4 1620.9 1358.5 1622.2 1360 1624.1L1358.3 1625.2C1357.2 1623.8 1355.4 1622.8 1353.4 1622.8 1349.7 1622.8 1346.8 1625.7 1346.8 1629.7 1346.8 1633.8 1349.6 1636.7 1353.4 1636.7 1355.5 1636.7 1357.1 1635.7 1358 1634.9L1358 1631.4 1352.1 1631.4 1352.1 1629.5 1360.1 1629.5 1360.1 1635.7C1358.5 1637.5 1356.2 1638.6 1353.4 1638.6 1348.5 1638.5 1344.6 1635 1344.6 1629.7Z" fill="#FFFFFF"/><path d="M1362.8 1632C1362.8 1628.4 1365.4 1625.5 1368.9 1625.5 1372.6 1625.5 1374.8 1628.4 1374.8 1632.1L1374.8 1632.6 1364.8 1632.6C1365 1634.9 1366.6 1636.9 1369.3 1636.9 1370.7 1636.9 1372.1 1636.3 1373.1 1635.3L1374 1636.6C1372.8 1637.8 1371.1 1638.5 1369.1 1638.5 1365.4 1638.5 1362.8 1635.9 1362.8 1632ZM1368.8 1627.1C1366.2 1627.1 1364.9 1629.3 1364.7 1631.2L1372.8 1631.2C1372.9 1629.4 1371.7 1627.1 1368.8 1627.1Z" fill="#FFFFFF"/><path d="M1386.3 1638.2 1386.3 1630.1C1386.3 1627.9 1385.2 1627.2 1383.5 1627.2 1382 1627.2 1380.6 1628.1 1379.8 1629.1L1379.8 1638.1 1377.9 1638.1 1377.9 1625.7 1379.8 1625.7 1379.8 1627.5C1380.7 1626.5 1382.4 1625.4 1384.2 1625.4 1386.8 1625.4 1388.1 1626.7 1388.1 1629.4L1388.1 1638.1 1386.3 1638.1Z" fill="#FFFFFF"/><path d="M1391.3 1632C1391.3 1628.4 1393.9 1625.5 1397.4 1625.5 1401.1 1625.5 1403.3 1628.4 1403.3 1632.1L1403.3 1632.6 1393.3 1632.6C1393.5 1634.9 1395.1 1636.9 1397.8 1636.9 1399.2 1636.9 1400.6 1636.3 1401.6 1635.3L1402.5 1636.6C1401.3 1637.8 1399.6 1638.5 1397.6 1638.5 1394 1638.5 1391.3 1635.9 1391.3 1632ZM1397.4 1627.1C1394.8 1627.1 1393.5 1629.3 1393.3 1631.2L1401.4 1631.2C1401.4 1629.4 1400.2 1627.1 1397.4 1627.1Z" fill="#FFFFFF"/><path d="M1406.5 1638.2 1406.5 1625.8 1408.4 1625.8 1408.4 1627.8C1409.4 1626.5 1410.8 1625.5 1412.5 1625.5L1412.5 1627.5C1412.3 1627.4 1412 1627.4 1411.7 1627.4 1410.5 1627.4 1408.9 1628.4 1408.3 1629.4L1408.3 1638.2 1406.5 1638.2Z" fill="#FFFFFF"/><path d="M1422.7 1638.2 1422.7 1636.8C1421.7 1637.9 1420.3 1638.5 1418.6 1638.5 1416.5 1638.5 1414.3 1637.1 1414.3 1634.4 1414.3 1631.6 1416.5 1630.3 1418.6 1630.3 1420.3 1630.3 1421.7 1630.8 1422.7 1632L1422.7 1629.8C1422.7 1628.1 1421.4 1627.2 1419.6 1627.2 1418.1 1627.2 1416.9 1627.7 1415.8 1628.9L1414.9 1627.6C1416.2 1626.2 1417.8 1625.5 1419.8 1625.5 1422.4 1625.5 1424.6 1626.7 1424.6 1629.7L1424.6 1638.2 1422.7 1638.2ZM1422.7 1635.6 1422.7 1633.3C1422 1632.3 1420.6 1631.8 1419.3 1631.8 1417.5 1631.8 1416.2 1632.9 1416.2 1634.5 1416.2 1636.1 1417.5 1637.2 1419.3 1637.2 1420.6 1637.1 1421.9 1636.6 1422.7 1635.6Z" fill="#FFFFFF"/><path d="M1428.8 1635.6 1428.8 1627.5 1426.7 1627.5 1426.7 1625.8 1428.8 1625.8 1428.8 1622.4 1430.7 1622.4 1430.7 1625.8 1433.2 1625.8 1433.2 1627.5 1430.7 1627.5 1430.7 1635.2C1430.7 1636.1 1431.1 1636.8 1432 1636.8 1432.5 1636.8 1433.1 1636.6 1433.3 1636.3L1433.9 1637.7C1433.4 1638.2 1432.7 1638.5 1431.6 1638.5 1429.7 1638.5 1428.8 1637.4 1428.8 1635.6Z" fill="#FFFFFF"/><path d="M1435.6 1622.8C1435.6 1622.1 1436.2 1621.5 1436.9 1621.5 1437.6 1621.5 1438.2 1622.1 1438.2 1622.8 1438.2 1623.5 1437.6 1624.1 1436.9 1624.1 1436.2 1624 1435.6 1623.5 1435.6 1622.8ZM1436 1638.2 1436 1625.8 1437.9 1625.8 1437.9 1638.2 1436 1638.2Z" fill="#FFFFFF"/><path d="M1441 1632C1441 1628.4 1443.4 1625.5 1447.1 1625.5 1450.9 1625.5 1453.2 1628.4 1453.2 1632 1453.2 1635.6 1450.8 1638.5 1447.1 1638.5 1443.4 1638.5 1441 1635.6 1441 1632ZM1451.2 1632C1451.2 1629.5 1449.7 1627.2 1447.1 1627.2 1444.5 1627.2 1443 1629.5 1443 1632 1443 1634.5 1444.5 1636.8 1447.1 1636.8 1449.8 1636.8 1451.2 1634.5 1451.2 1632Z" fill="#FFFFFF"/><path d="M1464.8 1638.2 1464.8 1630.1C1464.8 1627.9 1463.7 1627.2 1462 1627.2 1460.5 1627.2 1459.1 1628.1 1458.3 1629.1L1458.3 1638.1 1456.4 1638.1 1456.4 1625.7 1458.3 1625.7 1458.3 1627.5C1459.2 1626.5 1460.9 1625.4 1462.7 1625.4 1465.3 1625.4 1466.6 1626.7 1466.6 1629.4L1466.6 1638.1 1464.8 1638.1Z" fill="#FFFFFF"/><path d="M1469.4 1636.5 1470.4 1635.1C1471.2 1636 1472.8 1636.9 1474.5 1636.9 1476.4 1636.9 1477.4 1636 1477.4 1634.8 1477.4 1631.8 1469.7 1633.6 1469.7 1629.1 1469.7 1627.2 1471.4 1625.5 1474.3 1625.5 1476.4 1625.5 1477.9 1626.3 1478.9 1627.3L1478 1628.6C1477.3 1627.7 1475.9 1627 1474.3 1627 1472.6 1627 1471.6 1627.8 1471.6 1628.9 1471.6 1631.6 1479.3 1629.8 1479.3 1634.6 1479.3 1636.7 1477.6 1638.3 1474.4 1638.3 1472.4 1638.5 1470.7 1637.9 1469.4 1636.5Z" fill="#FFFFFF"/></g></g></g></g></svg>